<?xml version="1.0" encoding="iso-8859-1"?>
<!-- Generator: Adobe Illustrator 17.1.0, SVG Export Plug-In . SVG Version: 6.00 Build 0)  -->
<!DOCTYPE svg PUBLIC "-//W3C//DTD SVG 1.1//EN" "http://www.w3.org/Graphics/SVG/1.1/DTD/svg11.dtd">
<svg version="1.1" id="Capa_1" xmlns="http://www.w3.org/2000/svg" xmlns:xlink="http://www.w3.org/1999/xlink" x="0px" y="0px"
	 viewBox="0 0 203.55 203.55" style="enable-background:new 0 0 203.55 203.55;" xml:space="preserve">
<path d="M119.092,0.441c-46.57,0-84.458,37.888-84.458,84.458c0,15.808,4.375,30.608,11.963,43.273L5.868,168.901
	C2.084,172.687,0,177.719,0,183.071c0,5.352,2.084,10.384,5.868,14.169c3.785,3.784,8.817,5.868,14.169,5.868
	c5.353,0,10.385-2.084,14.17-5.868l40.517-40.517c12.903,8,28.102,12.634,44.368,12.634c46.57,0,84.458-37.888,84.458-84.458
	S165.662,0.441,119.092,0.441z M119.092,142.507c-31.765,0-57.607-25.843-57.607-57.607s25.843-57.607,57.607-57.607
	s57.606,25.843,57.606,57.607S150.856,142.507,119.092,142.507z M86.143,74.122c-1.919,0-3.839-0.732-5.304-2.196
	c-2.929-2.93-2.929-7.678,0-10.607l19.666-19.666c2.93-2.928,7.678-2.928,10.607,0c2.929,2.93,2.929,7.678,0,10.607L91.446,71.926
	C89.981,73.39,88.062,74.122,86.143,74.122z M92.476,110.905c-1.919,0-3.839-0.732-5.304-2.196c-2.929-2.93-2.929-7.678,0-10.607
	l50.116-50.116c2.93-2.928,7.678-2.928,10.607,0c2.929,2.93,2.929,7.678,0,10.607l-50.116,50.116
	C96.314,110.173,94.395,110.905,92.476,110.905z"/>
<g>
</g>
<g>
</g>
<g>
</g>
<g>
</g>
<g>
</g>
<g>
</g>
<g>
</g>
<g>
</g>
<g>
</g>
<g>
</g>
<g>
</g>
<g>
</g>
<g>
</g>
<g>
</g>
<g>
</g>
</svg>
