<?xml version="1.0" encoding="utf-8"?>
<!-- Generator: Adobe Illustrator 25.0.0, SVG Export Plug-In . SVG Version: 6.00 Build 0)  -->
<svg version="1.1" id="Layer_1" xmlns="http://www.w3.org/2000/svg" xmlns:xlink="http://www.w3.org/1999/xlink" x="0px" y="0px"
	 viewBox="0 0 42 42" style="enable-background:new 0 0 42 42;" xml:space="preserve">
<path d="M30,30h7c2.5,0,3-0.5,3-3V6c0-2.4-0.6-3-3-3H5C2.5,3,2,3.5,2,6v21c0,2.5,0.4,3,3,3h13c0,0,9.6,8.8,10.8,9.8
	C29.2,40.2,30,40,30,39V30z M8,21h21v3H8V21z M8,15h13v3H8V15z M8,9h26v3H8V9z"/>
</svg>
