<?xml version="1.0" encoding="iso-8859-1"?>
<!-- Generator: Adobe Illustrator 18.0.0, SVG Export Plug-In . SVG Version: 6.00 Build 0)  -->
<!DOCTYPE svg PUBLIC "-//W3C//DTD SVG 1.1//EN" "http://www.w3.org/Graphics/SVG/1.1/DTD/svg11.dtd">
<svg version="1.1" id="Capa_1" xmlns="http://www.w3.org/2000/svg" xmlns:xlink="http://www.w3.org/1999/xlink" x="0px" y="0px"
	 viewBox="0 0 300.344 300.344" style="enable-background:new 0 0 300.344 300.344;" xml:space="preserve">
<g>
	<path d="M0,6.794v212.491h150.838c-5.312-9.801-8.194-20.865-8.194-32.231c0-37.029,30.113-67.667,67.667-67.667
		c37.307,0,67.667,30.355,67.667,67.667c0,11.363-2.882,22.428-8.194,32.231h30.56V6.794H0z M29.478,100.539
		c16.597,0,91.868,0,108.389,0v25c-16.525,0-91.808,0-108.389,0V100.539z M104.144,186.039H29.478v-25c16.442,0,58.19,0,74.666,0
		C104.144,169.594,104.144,176.344,104.144,186.039z M241.811,65.039c-14.099,0-208.36,0-212.333,0v-25h212.333
		C241.811,49.749,241.811,56.443,241.811,65.039z"/>
	<path d="M252.977,187.054c0-23.564-19.102-42.667-42.667-42.667c-23.564,0-42.667,19.103-42.667,42.667
		c0,12.666,5.525,24.038,14.289,31.852l-23.689,47.865l6.364,26.779l25.151-11.182l20.598-41.62l20.598,41.62l25.151,11.182
		l6.364-26.779l-23.717-47.921C247.48,211.037,252.977,199.69,252.977,187.054z"/>
</g>
<g>
</g>
<g>
</g>
<g>
</g>
<g>
</g>
<g>
</g>
<g>
</g>
<g>
</g>
<g>
</g>
<g>
</g>
<g>
</g>
<g>
</g>
<g>
</g>
<g>
</g>
<g>
</g>
<g>
</g>
</svg>
