<?xml version="1.0" encoding="utf-8"?>
<!-- Generator: Adobe Illustrator 25.0.0, SVG Export Plug-In . SVG Version: 6.00 Build 0)  -->
<svg version="1.1" id="Calque_1" xmlns="http://www.w3.org/2000/svg" xmlns:xlink="http://www.w3.org/1999/xlink" x="0px" y="0px"
	 viewBox="0 0 800 192" style="enable-background:new 0 0 800 192;" xml:space="preserve">
<style type="text/css">
	.st0{fill:#D94441;}
</style>
<path class="st0" d="M800,86.9V72.8h-17.5V50.9l-0.6,0.2l-16.4,5l-0.3,0.1v16.6h-25.9v-9.2c0-4.3,1-7.6,2.9-9.8s4.6-3.3,8-3.3
	c2.5,0,5,0.6,7.6,1.7l0.6,0.3V37.7l-0.3-0.1c-2.4-0.9-5.7-1.3-9.7-1.3c-5.1,0-9.7,1.1-13.8,3.3c-4,2.2-7.2,5.3-9.4,9.3
	s-3.3,8.6-3.3,13.7v10.2h-12.2v14.1h12.2v59.3h17.5V86.9h25.9v37.7c0,15.5,7.3,23.4,21.7,23.4c2.4,0,4.9-0.3,7.4-0.8
	c2.6-0.6,4.4-1.1,5.4-1.7l0.2-0.1V131l-0.7,0.5c-0.9,0.6-2.1,1.1-3.5,1.5s-2.6,0.6-3.5,0.6c-3.4,0-5.9-0.9-7.4-2.7
	c-1.6-1.8-2.4-5-2.4-9.4V86.9H800L800,86.9z M670.7,133.6c-6.3,0-11.3-2.1-14.9-6.2c-3.5-4.2-5.3-10.1-5.3-17.6
	c0-7.8,1.8-13.9,5.3-18.1s8.5-6.3,14.7-6.3c6.1,0,10.9,2,14.3,6.1c3.5,4,5.2,10.1,5.2,18c0,8-1.7,14.1-4.9,18.2
	C681.9,131.6,677.1,133.6,670.7,133.6 M671.5,71c-12.1,0-21.7,3.5-28.5,10.5s-10.3,16.7-10.3,28.8c0,11.5,3.4,20.7,10.1,27.4
	c6.7,6.7,15.8,10.1,27,10.1c11.7,0,21.1-3.6,28-10.7c6.8-7.1,10.3-16.7,10.3-28.5c0-11.7-3.3-21-9.7-27.7
	C691.9,74.4,682.8,71,671.5,71 M604.4,71c-8.2,0-15,2.1-20.2,6.3c-5.2,4.2-7.9,9.6-7.9,16.3c0,3.4,0.6,6.5,1.7,9.1
	c1.1,2.6,2.9,4.9,5.2,6.8s5.9,3.9,10.6,5.9c4,1.6,6.9,3,8.8,4.1c1.8,1.1,3.1,2.1,3.9,3.2c0.7,1,1.1,2.4,1.1,4.2
	c0,4.9-3.7,7.3-11.3,7.3c-2.8,0-6-0.6-9.5-1.7s-6.8-2.8-9.8-5l-0.7-0.5v16.8l0.3,0.1c2.5,1.1,5.6,2.1,9.3,2.9s7,1.1,9.9,1.1
	c8.9,0,16.1-2.1,21.4-6.3c5.3-4.2,8-9.8,8-16.7c0-4.9-1.4-9.2-4.3-12.6c-2.8-3.4-7.7-6.5-14.5-9.3c-5.4-2.2-8.9-4-10.4-5.4
	c-1.4-1.3-2.1-3.2-2.1-5.6c0-2.1,0.9-3.8,2.7-5.2c1.8-1.4,4.3-2.1,7.4-2.1c2.9,0,5.9,0.5,8.8,1.4c3,0.9,5.6,2.1,7.7,3.6l0.7,0.5
	V74.3l-0.3-0.1c-2-0.9-4.6-1.6-7.8-2.2C609.8,71.3,606.9,71,604.4,71 M530.8,133.6c-6.3,0-11.3-2.1-14.9-6.2
	c-3.5-4.2-5.3-10.1-5.3-17.6c0-7.8,1.8-13.9,5.3-18.1s8.5-6.3,14.7-6.3c6.1,0,10.9,2,14.3,6.1c3.5,4,5.2,10.1,5.2,18
	c0,8-1.7,14.1-4.9,18.2C542,131.6,537.2,133.6,530.8,133.6 M531.6,71.1c-12.1,0-21.7,3.5-28.5,10.5s-10.3,16.7-10.3,28.8
	c0,11.5,3.4,20.7,10.1,27.4s15.8,10.1,27,10.1c11.7,0,21.1-3.6,28-10.7c6.8-7.1,10.3-16.7,10.3-28.5c0-11.7-3.3-21-9.7-27.7
	C552,74.5,543,71.1,531.6,71.1 M466.2,85.5V72.8h-17.3v73.3h17.3v-37.5c0-6.4,1.4-11.6,4.3-15.6c2.8-3.9,6.6-5.9,11.2-5.9
	c1.6,0,3.3,0.3,5.2,0.8c1.9,0.5,3.2,1.1,4,1.6l0.7,0.5V72.6l-0.3-0.1c-1.6-0.7-3.9-1-6.8-1c-4.3,0-8.2,1.4-11.5,4.1
	c-2.9,2.4-5,5.7-6.6,9.8L466.2,85.5L466.2,85.5L466.2,85.5z M382.2,71.1c-7.9,0-15,1.7-21,5c-6,3.4-10.7,8.1-13.8,14.2
	c-3.2,6.1-4.8,13.2-4.8,21.1c0,6.9,1.6,13.3,4.6,18.9c3.1,5.6,7.4,10,12.9,13.1c5.5,3,11.8,4.6,18.9,4.6c8.2,0,15.2-1.6,20.8-4.9
	l0.2-0.1v-15.8l-0.7,0.5c-2.5,1.9-5.4,3.3-8.4,4.4s-5.8,1.6-8.3,1.6c-6.8,0-12.2-2.1-16.1-6.3c-4-4.2-6-10.1-6-17.4
	c0-7.4,2.1-13.5,6.2-17.9s9.6-6.7,16.2-6.7c5.7,0,11.2,1.9,16.4,5.7l0.7,0.5V74.9l-0.2-0.1c-2-1.1-4.7-2-8-2.7
	C388.6,71.5,385.3,71.1,382.2,71.1 M433.1,72.2h-17.3v73.3h17.3V72.2z M424.5,41.6c-2.8,0-5.3,1-7.4,2.9c-2,1.9-3.1,4.3-3.1,7.2
	c0,2.8,1,5.2,3,7.1s4.5,2.8,7.4,2.8c2.9,0,5.4-0.9,7.4-2.8s3.1-4.2,3.1-7.1c0-2.8-1-5.1-3-7.1C430,42.6,427.4,41.6,424.5,41.6
	 M315.1,67.4v78.7h17.6V43.8h-24.4l-31,76l-30.1-76H222v102.3h16.5V67.3h0.6l31.7,78.8h12.5l31.2-78.7L315.1,67.4L315.1,67.4z"/>
<path class="st0" d="M81.2,90.8H0V9.6h81.2V90.8z"/>
<path d="M170.8,90.8H89.6V9.6h81.2L170.8,90.8L170.8,90.8z"/>
<path d="M81.2,180.4H0V99.2h81.2V180.4z"/>
<path class="st0" d="M170.8,180.4H89.6V99.2h81.2L170.8,180.4L170.8,180.4z"/>
</svg>
